<mxfile host="app.diagrams.net" modified="2024-05-11T05:32:19.814Z" agent="Mozilla/5.0 (Windows NT 10.0; Win64; x64) AppleWebKit/537.36 (KHTML, like Gecko) Chrome/124.0.0.0 Safari/537.36" version="24.3.0" etag="lB0AMFx1eNBRglieTfDS" type="github">
  <diagram name="Page-1" id="e4pIL1xa29q83adyyvEG">
    <mxGraphModel>
      <root>
        <mxCell id="0" />
        <mxCell id="1" parent="0" />
      </root>
    </mxGraphModel>
  </diagram>
</mxfile>
